<svg width="67" height="67" viewBox="0 0 67 67" fill="none" xmlns="http://www.w3.org/2000/svg">
<g clip-path="url(#clip0_422_668)">
<path d="M40.2652 33.0637C40.2652 36.559 37.4318 39.3924 33.9365 39.3924C30.4413 39.3924 27.6079 36.559 27.6079 33.0637C27.6079 29.5685 30.4413 26.7351 33.9365 26.7351C37.4318 26.7351 40.2652 29.5685 40.2652 33.0637Z" fill="white"/>
<path d="M48.7368 21.8666C48.4326 21.0422 47.9472 20.296 47.3166 19.6836C46.7041 19.0529 45.9584 18.5676 45.1335 18.2634C44.4646 18.0035 43.4596 17.6943 41.6085 17.61C39.6061 17.5187 39.0057 17.499 33.9364 17.499C28.8665 17.499 28.2661 17.5182 26.2642 17.6095C24.4132 17.6943 23.4077 18.0035 22.7392 18.2634C21.9143 18.5676 21.1681 19.0529 20.5561 19.6836C19.9255 20.296 19.4402 21.0417 19.1354 21.8666C18.8756 22.5356 18.5663 23.5411 18.4821 25.3921C18.3908 27.3941 18.3711 27.9944 18.3711 33.0643C18.3711 38.1336 18.3908 38.734 18.4821 40.7364C18.5663 42.5875 18.8756 43.5925 19.1354 44.2615C19.4402 45.0864 19.925 45.832 20.5556 46.4445C21.1681 47.0751 21.9138 47.5605 22.7387 47.8647C23.4077 48.125 24.4132 48.4343 26.2642 48.5186C28.2661 48.6099 28.866 48.629 33.9359 48.629C39.0062 48.629 39.6066 48.6099 41.608 48.5186C43.4591 48.4343 44.4646 48.125 45.1335 47.8647C46.7894 47.226 48.0981 45.9173 48.7368 44.2615C48.9966 43.5925 49.3059 42.5875 49.3906 40.7364C49.482 38.734 49.5011 38.1336 49.5011 33.0643C49.5011 27.9944 49.482 27.3941 49.3906 25.3921C49.3064 23.5411 48.9971 22.5356 48.7368 21.8666ZM33.9364 42.813C28.5517 42.813 24.1866 38.4485 24.1866 33.0638C24.1866 27.6791 28.5517 23.3146 33.9364 23.3146C39.3205 23.3146 43.6856 27.6791 43.6856 33.0638C43.6856 38.4485 39.3205 42.813 33.9364 42.813ZM44.071 25.2075C42.8128 25.2075 41.7927 24.1874 41.7927 22.9291C41.7927 21.6708 42.8128 20.6507 44.071 20.6507C45.3293 20.6507 46.3494 21.6708 46.3494 22.9291C46.3489 24.1874 45.3293 25.2075 44.071 25.2075Z" fill="white"/>
<path d="M33.9364 0C15.6785 0 0.872559 14.806 0.872559 33.0638C0.872559 51.3217 15.6785 66.1277 33.9364 66.1277C52.1942 66.1277 67.0002 51.3217 67.0002 33.0638C67.0002 14.806 52.1942 0 33.9364 0ZM52.8077 40.8914C52.7159 42.9124 52.3945 44.2923 51.9253 45.5001C50.939 48.0504 48.923 50.0665 46.3727 51.0528C45.1654 51.522 43.785 51.8429 41.7644 51.9352C39.7398 52.0275 39.093 52.0497 33.9369 52.0497C28.7803 52.0497 28.134 52.0275 26.1089 51.9352C24.0883 51.8429 22.7079 51.522 21.5006 51.0528C20.2333 50.576 19.086 49.8288 18.1375 48.8627C17.1719 47.9147 16.4247 46.7669 15.9479 45.5001C15.4787 44.2928 15.1574 42.9124 15.0655 40.8919C14.9722 38.8668 14.9505 38.22 14.9505 33.0638C14.9505 27.9077 14.9722 27.2609 15.065 25.2363C15.1569 23.2152 15.4777 21.8354 15.9469 20.6276C16.4237 19.3607 17.1714 18.213 18.1375 17.265C19.0855 16.2988 20.2333 15.5516 21.5001 15.0749C22.7079 14.6057 24.0878 14.2848 26.1089 14.1925C28.1335 14.1002 28.7803 14.078 33.9364 14.078C39.0925 14.078 39.7393 14.1002 41.7639 14.193C43.785 14.2848 45.1649 14.6057 46.3727 15.0744C47.6395 15.5511 48.7873 16.2988 49.7358 17.265C50.7014 18.2135 51.4491 19.3607 51.9253 20.6276C52.395 21.8354 52.7159 23.2152 52.8082 25.2363C52.9006 27.2609 52.9223 27.9077 52.9223 33.0638C52.9223 38.22 52.9006 38.8668 52.8077 40.8914Z" fill="white"/>
</g>
<defs>
<clipPath id="clip0_422_668">
<rect width="66.1277" height="66.1277" fill="white" transform="translate(0.872559)"/>
</clipPath>
</defs>
</svg>
