<svg width="298" height="140" viewBox="0 0 298 140" fill="none" xmlns="http://www.w3.org/2000/svg">
<path d="M226.769 83.6035C224.099 77.2912 219.879 71.7551 214.5 67.5081C212.687 72.1035 210.029 76.3187 206.665 79.9358C206.952 80.2077 207.226 80.4896 207.498 80.7695C209.836 83.2385 211.697 86.1191 212.986 89.2656C214.325 92.4719 215.015 95.9124 215.015 99.3873C215.015 102.862 214.325 106.303 212.986 109.509C211.68 112.647 209.821 115.525 207.498 118.005C205.192 120.456 202.443 122.449 199.397 123.878C196.271 125.32 192.87 126.068 189.428 126.068C185.986 126.068 182.584 125.32 179.459 123.878C176.412 122.449 173.664 120.456 171.358 118.005C169.033 115.525 167.172 112.647 165.864 109.509C164.529 106.301 163.842 102.862 163.842 99.3873C163.842 95.9131 164.529 92.4731 165.864 89.2656C167.155 86.1188 169.018 83.2383 171.358 80.7695C172.767 79.2923 174.341 77.9824 176.049 76.8656C174.711 75.8801 173.433 74.8144 172.223 73.6743C169.926 71.4037 168.032 68.7587 166.622 65.8528C164.531 67.2709 162.58 68.8852 160.796 70.6735C157.096 74.389 154.141 78.777 152.089 83.6014C149.973 88.5954 148.883 93.9637 148.883 99.3873C148.883 104.811 149.973 110.179 152.089 115.173C156.236 124.878 163.967 132.609 173.672 136.756C178.656 138.872 184.016 139.962 189.431 139.962C194.846 139.962 200.205 138.872 205.19 136.756C214.895 132.609 222.626 124.878 226.773 115.173C228.888 110.179 229.979 104.811 229.979 99.3873C229.979 93.9638 228.888 88.5954 226.773 83.6014L226.769 83.6035Z" fill="white"/>
<path d="M25.7776 110.228V138.41H41.3491V110.246C38.78 110.711 36.1741 110.942 33.5633 110.937C30.9518 110.94 28.3455 110.703 25.7776 110.228Z" fill="white"/>
<path d="M52.1539 60.3135V70.9293C52.2717 74.2703 51.6127 77.593 50.2288 80.6362C49.1097 82.9895 47.483 85.0656 45.4657 86.7151C43.6734 88.1604 41.5987 89.215 39.3748 89.8112C35.576 90.9478 31.5277 90.9478 27.7289 89.8112C25.5047 89.2157 23.4299 88.1611 21.638 86.7151C19.624 85.0648 18.0007 82.9888 16.8848 80.6362C15.5008 77.5931 14.8419 74.2703 14.9597 70.9293V60.3135H0.00345337V71.0047C-0.060178 75.6391 0.756062 80.2436 2.40885 84.5737C3.90487 88.4721 6.21783 92.005 9.19236 94.9355C12.2202 97.8537 15.8228 100.109 19.7705 101.558C28.728 104.694 38.4849 104.694 47.4424 101.558C51.3896 100.109 54.9915 97.8538 58.0185 94.9355C60.9884 92.0111 63.2863 88.4754 64.7524 84.5737C66.3678 80.2349 67.1646 75.634 67.1022 71.0047V60.3135H52.1539Z" fill="white"/>
<path d="M297.712 70.2172C297.712 67.5901 296.668 65.0706 294.811 63.213C292.953 61.3554 290.434 60.3118 287.807 60.3118H241.499V74.0932H277.596C277.806 74.0929 278.012 74.1525 278.189 74.2652C278.366 74.3779 278.508 74.5388 278.597 74.7291C278.686 74.9194 278.718 75.1312 278.691 75.3395C278.664 75.5478 278.578 75.744 278.443 75.9051L239.431 122.592C237.899 124.425 237.06 126.738 237.059 129.127C237.059 131.589 238.037 133.95 239.778 135.691C241.519 137.431 243.88 138.409 246.342 138.409H294.814V124.517H257.842C257.633 124.516 257.427 124.456 257.25 124.343C257.073 124.23 256.932 124.069 256.844 123.878C256.755 123.688 256.722 123.477 256.749 123.268C256.777 123.06 256.863 122.864 256.997 122.703L295.162 77.217C296.808 75.2557 297.711 72.7776 297.712 70.2172Z" fill="white"/>
<path d="M139.067 92.8367H101.97V106.618H139.067V92.8367Z" fill="white"/>
<path d="M100.082 60.2501V60.2958C96.8207 60.2623 93.5841 60.8691 90.5561 62.0819C88.0191 63.1679 85.8061 64.8914 84.1318 67.0852C82.5314 69.2534 81.4245 71.7455 80.8889 74.3867C80.2847 77.3 79.99 80.269 80.0097 83.2442V138.473H95.9663V83.8355C95.8743 81.3532 96.4095 78.8878 97.5222 76.667C98.5145 74.8431 100.743 73.9163 104.135 73.8508H139.065V60.248L100.082 60.2501Z" fill="white"/>
<path d="M214.432 60.2974C214.015 62.4538 213.414 64.5706 212.636 66.6245C210.915 71.1944 208.312 75.3813 204.975 78.9471C204.94 78.9919 204.902 79.035 204.862 79.0761C204.871 79.0056 204.877 78.9347 204.878 78.8637C204.989 75.5279 204.427 72.2041 203.226 69.0898C202.026 65.9756 200.211 63.1346 197.89 60.736C197.769 60.607 197.656 60.4701 197.535 60.3391C197.414 60.2081 197.337 60.1188 197.223 60.0057C194.93 57.6074 192.429 55.4158 189.751 53.4563C187.947 52.1068 186.068 50.789 184.25 49.5228C182.976 48.6277 181.658 47.7108 180.386 46.788C174.968 42.8623 169.018 37.9285 165.941 31.147C163.442 25.6236 163.099 19.365 164.979 13.6014C166.86 7.83773 170.829 2.98603 176.105 0C175.983 0.825556 175.968 1.66328 176.059 2.49273L175.922 2.4312L176.202 3.46919C176.343 4.15436 176.542 4.82626 176.798 5.47763C178.187 8.63684 180.248 11.4555 182.837 13.7377C186.058 16.7921 190.551 20.2176 194.514 23.2402C195.628 24.0817 196.674 24.8854 197.636 25.6217C201.937 28.6837 205.887 32.2113 209.413 36.1404C212.504 39.8738 214.404 44.4482 214.869 49.2727C214.88 49.3331 214.887 49.3941 214.891 49.4553C215.284 53.0718 215.13 56.727 214.432 60.2974Z" fill="white"/>
<path d="M199.843 83.9242C197.899 89.7065 194.82 95.0424 190.787 99.6188C191.237 98.721 191.517 97.7472 191.612 96.747C191.707 94.227 191.322 91.7119 190.475 89.3363C189.564 86.4072 187.911 83.7631 185.678 81.6598C185.337 81.3422 184.995 81.0226 184.64 80.7269C183.053 79.4012 180.54 77.619 178.206 75.8685C176.689 74.7742 175.242 73.5871 173.872 72.314C171.696 70.1584 169.91 67.6433 168.59 64.8796C166.683 60.8063 165.628 56.386 165.49 51.8901C165.323 47.4757 165.92 43.0656 167.257 38.855C174.737 48.032 181.504 51.2451 188.611 56.4905C188.756 56.5957 188.891 56.689 189.028 56.8021C189.967 57.4987 190.916 58.2727 191.84 59.0984C192.37 59.568 192.885 60.053 193.387 60.5531L193.408 60.5749C193.476 60.6424 193.545 60.7198 193.607 60.7872C194.169 61.3549 194.72 61.9463 195.282 62.5735C196.312 63.7443 197.249 64.993 198.086 66.3085C199.85 69.2163 200.812 72.5396 200.875 75.94C200.957 78.6393 200.608 81.3345 199.843 83.9242Z" fill="white"/>
</svg>
