<svg width="67" height="67" viewBox="0 0 67 67" fill="none" xmlns="http://www.w3.org/2000/svg">
<g clip-path="url(#clip0_422_672)">
<path d="M33.4999 0C15.242 0 0.436035 14.806 0.436035 33.0638C0.436035 51.3217 15.242 66.1277 33.4999 66.1277C51.7577 66.1277 66.5637 51.3217 66.5637 33.0638C66.5637 14.806 51.7577 0 33.4999 0ZM48.5964 25.7797C48.6111 26.1051 48.6181 26.432 48.6181 26.7604C48.6181 36.7887 40.9848 48.3526 27.0254 48.3531H27.0259H27.0254C22.7396 48.3531 18.7514 47.0969 15.3929 44.9441C15.9867 45.0143 16.5911 45.0491 17.2031 45.0491C20.7589 45.0491 24.0311 43.8362 26.6289 41.8005C23.3067 41.7389 20.5056 39.5448 19.539 36.5293C20.0016 36.6181 20.4774 36.6666 20.9652 36.6666C21.6579 36.6666 22.3289 36.5732 22.9666 36.3992C19.4941 35.704 16.8781 32.635 16.8781 28.9601C16.8781 28.9258 16.8781 28.895 16.8792 28.8632C17.9018 29.4318 19.0713 29.7739 20.3164 29.8122C18.2787 28.4526 16.9392 26.1283 16.9392 23.4952C16.9392 22.1048 17.3151 20.8021 17.9669 19.6806C21.7094 24.2727 27.3024 27.2927 33.6099 27.61C33.4797 27.0541 33.4126 26.4749 33.4126 25.8796C33.4126 21.6901 36.8115 18.2912 41.0025 18.2912C43.1855 18.2912 45.1572 19.2139 46.5421 20.6891C48.271 20.3481 49.8946 19.7164 51.3612 18.8471C50.7936 20.6185 49.5908 22.1048 48.0238 23.0447C49.5591 22.861 51.0221 22.4539 52.3818 21.8495C51.3662 23.3716 50.0782 24.7086 48.5964 25.7797Z" fill="white"/>
</g>
<defs>
<clipPath id="clip0_422_672">
<rect width="66.1277" height="66.1277" fill="white" transform="translate(0.436035)"/>
</clipPath>
</defs>
</svg>
